<?xml version="1.0" encoding="utf-8"?>
<!-- Generator: Adobe Illustrator 18.1.1, SVG Export Plug-In . SVG Version: 6.00 Build 0)  -->
<svg version="1.1" id="Layer_1" xmlns="http://www.w3.org/2000/svg" xmlns:xlink="http://www.w3.org/1999/xlink" x="0px" y="0px"
	 viewBox="280.8 74.2 407.1 411.6" enable-background="new 280.8 74.2 407.1 411.6" xml:space="preserve">
<path d="M671.6,162.7c9,0,16.2-7.3,16.2-16.2s-7.3-16.2-16.2-16.2c-7.8,0-14,5-15.7,12.3l-79,16.2c-3.9-7.3-11.2-12.9-19.6-14.6
	l-1.1-34.7c6.7-2.8,11.2-9.5,11.2-16.8c0-10.1-8.4-18.5-18.5-18.5c-10.1,0-18.5,8.4-18.5,18.5c0,8.4,6.2,15.7,14,17.9l1.1,34.2
	c-6.7,1.7-12.3,5.6-16.2,11.8l-65-39.2c0.6-1.1,0.6-2.2,0.6-3.9c0-9-7.3-16.2-16.2-16.2s-16.2,7.3-16.2,16.2c0,9,7.3,16.2,16.2,16.2
	c3.4,0,6.2-1.1,9-2.8l67.2,40.9c0,1.1-0.6,2.8-0.6,3.9c0,3.9,1.1,7.8,2.2,11.2L424.7,284.8c-4.5-3.9-10.6-6.2-17.4-6.2
	c-5.6,0-10.6,1.7-15.1,4.5L344,234.9c2.8-3.4,3.9-7.8,3.9-12.9c0-12.3-10.1-22.4-22.4-22.4s-22.4,10.1-22.4,22.4
	c0,12.3,10.1,22.4,22.4,22.4c3.4,0,6.7-0.6,9.5-2.2l49.3,49.3c-2.8,4.5-4.5,9-4.5,14.6c0,2.2,0,3.9,0.6,6.2l-70,23.5
	c-2.8-4.5-7.8-7.3-13.4-7.3c-9,0-16.2,7.3-16.2,16.2c0,9,7.3,16.2,16.2,16.2c7.8,0,14.6-6.2,15.7-13.4l72.2-24.1
	c3.9,5.6,10.1,9.5,17.4,10.6v40.9c-8.4,1.7-14.6,9-14.6,17.9c0,10.1,8.4,18.5,18.5,18.5s18.5-8.4,18.5-18.5c0-7.3-4.5-14-10.6-16.8
	v-42.6c7.8-2.2,14.6-7.8,17.9-15.1l92.4,18.5c0,1.1-0.6,1.7-0.6,2.8c0,11.8,9.5,21.3,21.3,21.3c1.7,0,2.8,0,4.5-0.6l15.1,37.5
	c-4.5,3.4-7.3,9-7.3,14.6c0,2.8,0.6,6.2,2.2,8.4l-30.8,31.9c0,0,0,0-0.6,0c-8.4-2.8-17.4,1.1-20.7,9.5c-2.8,8.4,1.1,17.4,9.5,20.7
	c8.4,2.8,17.4-1.1,20.7-9.5c1.7-4.5,1.1-9-0.6-12.3l30.2-31.9c2.8,1.1,5.6,2.2,9,2.2c5,0,9.5-1.7,12.9-5l56.6,38.1
	c-0.6,1.7-1.1,3.4-1.1,5c0,9,7.3,16.2,16.2,16.2c9,0,16.2-7.3,16.2-16.2c0-9-7.3-16.2-16.2-16.2c-2.8,0-5.6,0.6-7.8,2.2l-58.8-39.2
	c0-1.1,0.6-2.8,0.6-3.9c0-10.6-8.4-19-19-19c-0.6,0-0.6,0-1.1,0l-15.7-38.6c3.9-3.9,6.7-9.5,6.7-15.1c0-11.8-9.5-21.3-21.3-21.3
	c-6.7,0-12.3,3.4-16.2,7.8l-94.6-19c0,0,0,0,0-0.6c0-4.5-1.1-8.4-2.8-12.3l101.4-101.4c5,4.5,11.2,6.7,17.9,6.7
	c5.6,0,10.6-1.7,15.1-4.5l52.6,52.6c-1.1,2.2-1.7,5-1.7,7.3c0,10.1,8.4,18.5,18.5,18.5c10.1,0,18.5-8.4,18.5-18.5
	c0-10.1-8.4-18.5-18.5-18.5c-3.4,0-6.2,1.1-9,2.2l-52.6-52.6c2.8-4.5,3.9-9,3.9-14.6c0-0.6,0-0.6,0-1.1l77.8-15.7
	C660.4,159.3,665.5,162.7,671.6,162.7z"/>
</svg>
